# xmcd
#
# Track frame offsets:
#	150
#	12390
#	25650
#	39814
#	52814
#	67967
#	79697
#	91566
#	104787
#	120253
#	149526
#	166546
#	179454
#	189715
#	206343
#	224010
#	238105
#
# Disc length: 3447 seconds
#
# Revision: 0
# Processed by: cddbd v1.5.2PL0 Copyright (c) Steve Scherf et al.
# Submitted via: EasyCDDAExtractor 16.0.9.1
#
DISCID=da0d7511
DTITLE=Ray Charles - N-071 Ray Charlse  Ultimate Hits Collection CD1 
DYEAR=1900
DGENRE=
TTITLE0=Mess Around
TTITLE1=I've Got a Woman
TTITLE2=A Fool for You
TTITLE3=Greenbacks
TTITLE4=Drown in My Own Tears
TTITLE5=Halleluja I Love Her So
TTITLE6=Lonely Avenue
TTITLE7=Ain't that Love
TTITLE8=(Night Time Is) The Right Time
TTITLE9=What'd I Say Parts I and II
TTITLE10=Don't Let the Sun Catch You Cr
TTITLE11=Them That Got
TTITLE12=Sticks and Stones
TTITLE13=Georgia on My Mind
TTITLE14=Ruby
TTITLE15=One Mint Julep
TTITLE16=I've Got News for You
EXTD=
EXTT0=
EXTT1=
EXTT2=
EXTT3=
EXTT4=
EXTT5=
EXTT6=
EXTT7=
EXTT8=
EXTT9=
EXTT10=
EXTT11=
EXTT12=
EXTT13=
EXTT14=
EXTT15=
EXTT16=
PLAYORDER=
